<svg id="Layer_1" data-name="Layer 1" xmlns="http://www.w3.org/2000/svg" viewBox="0 0 335.07 336.21"><defs><style>.cls-1{fill:#d71e3a;}.cls-2{fill:#fdf278;}.cls-3{fill:#fdf277;}.cls-4{fill:#fff;}</style></defs><title>kongsberg_logo_white_text</title><rect class="cls-1" x="83.51" width="167.58" height="251.31"/><path class="cls-2" d="M304.59,311.34A85.48,85.48,0,0,0,277,315.88l-10.45-18c0-.16-.14-.35,0-.51s.11-.26.7-.26,4.29.16,4.53.18a.65.65,0,0,1,.64.7c0,.52.13,3.25.13,3.45,0,.54.7.85,1,.08.32-.92.9-2.38,1-2.66.21-.63.58-.46,1.34,0l2.79,1.55c.16.09.22.21.09.85s-.53,2.94-.61,3.24-.12.5-.75.37-2.5-.57-2.69-.57-.68,0-.57.61a6.54,6.54,0,0,0,4,3.25,6.63,6.63,0,0,0,7.2-2.35,7.12,7.12,0,0,0,1.28-4.45.82.82,0,0,0-.33-.73.33.33,0,0,0-.38,0c-.4.46-.6,1.05-1.06,1.49a2.44,2.44,0,0,1-2.24.51c-1.47-.52-2-2.09-2-3.57a2.7,2.7,0,0,1,1.09-2.16,2.18,2.18,0,0,1,2.27-.12c.57.23,1,.82,1.65.83a.44.44,0,0,0,.22-.75c-.49-.61-2.31-2.26-2.5-4.57a6,6,0,0,1,1.74-4.91.45.45,0,0,1,.51-.09,6.15,6.15,0,0,1,3.65,4.7,8.18,8.18,0,0,1-.67,4.21.55.55,0,0,0,.29.74.63.63,0,0,0,.58-.32c.54-.75,1.13-1.82,2.16-1.9a2.42,2.42,0,0,1,2.35,1.13,4.18,4.18,0,0,1,.42,3.72,2.24,2.24,0,0,1-2,1.32c-.95.11-1.58-.57-2.3-1a.36.36,0,0,0-.43,0c-.3.3-.08.76,0,1.08a6.69,6.69,0,0,0,5.78,4.22,7.15,7.15,0,0,0,6.86-4,5.59,5.59,0,0,0,.59-2.51.45.45,0,0,0-.26-.37c-.59-.11-1,.43-1.42.71l-1.82,1.37a.47.47,0,0,1-.37,0c-.88-1-1.68-2.1-2.46-3.17a.4.4,0,0,1,0-.43c.69-1.09,1.47-2.12,2.25-3.16.11-.16.26-.3.45-.21,1.1.7,2.1,1.58,3.22,2.17a.48.48,0,0,0,.52-.73c-.32-.63-1.48-2.28-1.69-2.67s-.49-.64-.1-.91l3.31-2.31a.27.27,0,0,1,.3,0l3.31,2.31c.38.27.12.53-.09.91s-1.37,2-1.7,2.67a.48.48,0,0,0,.52.73c1.12-.59,2.13-1.47,3.21-2.17.19-.09.35,0,.46.21.78,1,1.56,2.07,2.26,3.16a.42.42,0,0,1,0,.43c-.78,1.07-1.58,2.17-2.47,3.17a.45.45,0,0,1-.36,0L308,299.06c-.45-.28-.84-.82-1.42-.71a.47.47,0,0,0-.26.37,5.59,5.59,0,0,0,.59,2.51,7.16,7.16,0,0,0,6.87,4,6.69,6.69,0,0,0,5.77-4.22c.11-.32.33-.78,0-1.08a.38.38,0,0,0-.44,0c-.71.46-1.35,1.14-2.3,1a2.23,2.23,0,0,1-2-1.32,4.18,4.18,0,0,1,.42-3.72,2.4,2.4,0,0,1,2.35-1.13c1,.08,1.62,1.15,2.15,1.9a.66.66,0,0,0,.59.32c.27-.05.41-.44.29-.74a8.07,8.07,0,0,1-.67-4.21,6.15,6.15,0,0,1,3.65-4.7.46.46,0,0,1,.51.09,6,6,0,0,1,1.73,4.91c-.17,2.31-2,4-2.49,4.57a.44.44,0,0,0,.23.75c.65,0,1.06-.6,1.64-.83a2.18,2.18,0,0,1,2.27.12,2.66,2.66,0,0,1,1.08,2.16c0,1.48-.52,3.05-2,3.57a2.45,2.45,0,0,1-2.24-.51c-.46-.44-.65-1-1.06-1.49-.1-.12-.24-.08-.37,0a.86.86,0,0,0-.34.73,7.19,7.19,0,0,0,1.29,4.45,6.7,6.7,0,0,0,11.22-.9c.1-.58-.37-.59-.57-.61s-2.08.45-2.7.57-.66-.06-.74-.37-.49-2.59-.63-3.24-.07-.76.1-.85l2.8-1.55c.74-.45,1.12-.62,1.32,0,.09.28.66,1.74,1,2.66.27.77,1,.46,1-.08,0-.2.07-2.93.12-3.45a.65.65,0,0,1,.64-.7c.24,0,3.94-.19,4.53-.18s.59.07.69.26a.58.58,0,0,1-.05.51l-10.44,18a85.48,85.48,0,0,0-27.61-4.54" transform="translate(-138.46 -228.39)"/><path class="cls-2" d="M304.59,278a4.76,4.76,0,1,1-4.75,4.76A4.76,4.76,0,0,1,304.59,278Z" transform="translate(-138.46 -228.39)"/><path class="cls-2" d="M267.58,285.77a3.8,3.8,0,1,1-3.8,3.8A3.8,3.8,0,0,1,267.58,285.77Z" transform="translate(-138.46 -228.39)"/><path class="cls-2" d="M272.13,276.11a3.8,3.8,0,1,1-3.8,3.8A3.8,3.8,0,0,1,272.13,276.11Z" transform="translate(-138.46 -228.39)"/><path class="cls-2" d="M282.93,272.88a3.8,3.8,0,1,1-3.79,3.81A3.81,3.81,0,0,1,282.93,272.88Z" transform="translate(-138.46 -228.39)"/><path class="cls-2" d="M293.55,277.62a3.8,3.8,0,1,1-3.8,3.8A3.8,3.8,0,0,1,293.55,277.62Z" transform="translate(-138.46 -228.39)"/><path class="cls-2" d="M342.28,285.77a3.8,3.8,0,1,0,3.79,3.8A3.81,3.81,0,0,0,342.28,285.77Z" transform="translate(-138.46 -228.39)"/><path class="cls-2" d="M337.72,276.11a3.8,3.8,0,1,0,3.8,3.8A3.8,3.8,0,0,0,337.72,276.11Z" transform="translate(-138.46 -228.39)"/><path class="cls-2" d="M326.92,272.88a3.8,3.8,0,1,0,3.8,3.81A3.81,3.81,0,0,0,326.92,272.88Z" transform="translate(-138.46 -228.39)"/><path class="cls-2" d="M316.31,277.62a3.8,3.8,0,1,0,3.79,3.8A3.81,3.81,0,0,0,316.31,277.62Z" transform="translate(-138.46 -228.39)"/><path class="cls-2" d="M307.26,264.1,306,268.61v0c1.26-.31,2.51-.75,3.77-1.1v5.31c-1.26-.36-2.51-.79-3.77-1.11v0l1.25,4.66a6.71,6.71,0,0,0-2.7-.54,6.83,6.83,0,0,0-2.71.54l1.25-4.66v0c-1.25.32-2.49.75-3.76,1.11v-5.31c1.27.35,2.51.79,3.76,1.1v0l-1.2-4.51Z" transform="translate(-138.46 -228.39)"/><path class="cls-2" d="M297.92,330.41c1.82-.88,3.59-2,5.42-2.84l2.66,4.15-.23.12-26.53,13.92c-.16-4.49-1.16-8.85-4.72-12a9.2,9.2,0,0,0-8.46-1.88c-1.73.64-3.59,2.14-3.78,3.92a4.75,4.75,0,0,0,1,3.47,9.7,9.7,0,0,1,5.55-.76,8.44,8.44,0,0,1,4.29,14.58,11.7,11.7,0,0,1-19.66-7.9c-.6-8.43,5.51-16.09,13.7-19.52,6.45-2.85,15.91-3.81,22.58-.76A24.42,24.42,0,0,1,297.92,330.41Zm-23.44-2.19a15.48,15.48,0,0,1,8.94,9.8l9.63-5C288.43,328.17,281.16,326.69,274.48,328.22Zm-15.56,12.45a9.21,9.21,0,0,0,1.34,8.3A6.59,6.59,0,0,0,267,351.2a5,5,0,0,0,3.48-3.51,3.87,3.87,0,0,0-1.56-3.94,4.67,4.67,0,0,0-4.43-.37,5.74,5.74,0,0,0-1.9,1.86A7.17,7.17,0,0,1,258.92,340.67Z" transform="translate(-138.46 -228.39)"/><path class="cls-3" d="M344.53,328.58c1.59,3.08.91,7.06,1,10.61L344,340,323,351h0V340.24c-.11-1.39-.32-2.8-1.65-3.74-1.71-1.26-4.53-.48-6.19.35v23.42l13-6.6c3.87-1.92,9.2-2.8,13.17-.49,4,2.08,5.16,6,5,10l-.13,9.6L328.76,382l-.09,0c6,2,12.7,4.67,15.79,10.49s1,13.8,2.08,20.25a18.31,18.31,0,0,0,4.2,8.85l.17-.09,5.26-2.77,2.65,4.21-18.52,9.73L332,437c-4.89-5.66-9-11.69-9.23-19.16l-.12-6.14.08-14.78c-.18-2.92-.27-6-3.16-7.76a4.9,4.9,0,0,0-4.38-.12v19c-8.75.19-17.14,2.27-23.05,8.59a37.47,37.47,0,0,0-4.2,5.33c-3.7-1.69-9.11-2-12.83-.14-3,1.52-5,4.35-4.53,7.55.48,3.43,4.37,6.06,7.82,6.76,8,1.41,17.18,0,21.88-6.63l.69-1.25a7.79,7.79,0,0,1-3.24-8.14c.64-3.41,4.25-6.6,8-7.18a11.16,11.16,0,0,1,10.46,3.22,9.7,9.7,0,0,1,1.71,10.49c-3.53,8.11-13.12,11.74-21.56,13.51-10.62,2.15-22.09,1.45-31.55-2.47-6-2.57-11.34-8-11.75-14.12-.7-7.61,4.17-14.11,11.23-18A40.61,40.61,0,0,1,279,401V382h-14.7c0-5.81,2.41-11.86,8.61-14.45A19.38,19.38,0,0,1,279,366.4V350.25l8.73-4.47,27.89-14.64,11.41-6c3.7-1.9,9.37-3,13.29-.7A9.33,9.33,0,0,1,344.53,328.58Zm-10.22-.44c-3.95.4-7.11,2.59-10.43,4.26,4.56,1.61,4.74,6.25,4.61,10.2l11.7-6.15c-.06-2.14.32-4.48-.92-6.23A5.54,5.54,0,0,0,334.31,328.14Zm-24.62,35V339.76l-7.49,3.91V367Zm-12.91,29.83V346.55L284.65,353l-.24.08v18.09c-3,.08-6-.25-8.65.61a7,7,0,0,0-4.78,5.37h13.43v22.21h0ZM335,356.73c-4.23.53-7.58,3-11.19,4.8a6.75,6.75,0,0,1,4.49,6.26l0,8.8,0,0L340.89,370l.11-4.44c-.09-2.31.3-4.79-.94-6.7A5.57,5.57,0,0,0,335,356.73ZM315.2,366v17.58l7.62-4.06.06-7.72c-.11-2,.26-4.16-1.06-5.69C320.21,364.2,317,364.89,315.2,366Zm-5.51,2.79-7.49,3.91v23.17l-10.14,5.24a85,85,0,0,1,17.63,3.76Zm12.65,16.49-.06.1c4.25,1.81,5.61,6,5.81,9.93v16.17l.08,5.39a21.44,21.44,0,0,0,5.52,13.71l12.19-6.41a24.22,24.22,0,0,1-5.08-13.9l0-9.05c-.11-2.35-.21-4.7-1.31-6.66C335.82,388.6,328.6,387.06,322.34,385.23Zm-25.52,21.31c-9.5-1.86-20.52-1.64-28.72,2.63-5.4,2.69-9.86,7.71-9.56,13.53,0,4.62,4,8.58,8.31,10.63a8.89,8.89,0,0,1-1.62-5.47,10.19,10.19,0,0,1,2.2-6.26c4.33-5.18,11.44-6.88,18.37-5.41a26.58,26.58,0,0,1,12.67-9.29Zm12.09,11a5.48,5.48,0,0,0-5.1,1.92,4.07,4.07,0,0,0-.29,4.47,5,5,0,0,0,4.07,2.35c-.56,2.76-2.5,5.09-4.56,7.17,2.85-1.21,5.79-2.56,7.88-5.15,2-2.32,3.35-5.81,1.6-8.57A5.65,5.65,0,0,0,308.91,417.51Z" transform="translate(-138.46 -228.39)"/><path class="cls-4" d="M252,564.61a14.87,14.87,0,0,1-9.15-6.16c-.84-1.13-13-19.61-17-25.65v22.82c0,3.3-.06,5.65,2.69,7.48v.18H219.3v-.18c2.74-1.83,2.74-4.18,2.74-7.48V531.4c0-3.3-.69-5-3.39-6.73v-.18h9.69v.06L248.26,555V532.09c0-3.3.05-5.65-2.7-7.42v-.18h9.11v.18c-2.69,1.77-2.69,4.12-2.69,7.42v32.52" transform="translate(-138.46 -228.39)"/><path class="cls-4" d="M212,543.36c0,12-8.72,20.68-19,20.68s-18.85-8.34-18.85-20.39c0-11.17,8.52-20.52,19.36-20.22C204.4,523.37,212,532.77,212,543.36Zm-30.9.39c0,8.78,4.33,16.76,12.2,16.76,7.25,0,11.71-7.56,11.71-16.76,0-9.44-4.54-17-11.8-17S181.14,534.06,181.14,543.75Z" transform="translate(-138.46 -228.39)"/><path class="cls-4" d="M287.5,560v-9.33c0-2.72-.34-5.36-3-6.42v-.17h9.36v18.62a57,57,0,0,1-11.44,1.54c-1.66,0-20.14,0-20-20,.09-18.2,15.32-20.35,18.82-20.46s8.16.39,11.34,1.91v7.41h-.18c-2.46-3.61-5.19-6.14-10.69-6.14-3.93,0-12.28,3.7-12.28,17.45,0,3.21.69,12.06,8,15.31C278.81,560.36,283.75,561.8,287.5,560Z" transform="translate(-138.46 -228.39)"/><path class="cls-4" d="M467.17,560v-9.33c0-2.72-.34-5.36-3-6.42v-.17h9.36v18.62a57,57,0,0,1-11.44,1.54c-1.67,0-20.14,0-20-20,.09-18.2,15.33-20.35,18.81-20.46s8.17.39,11.35,1.91v7.41H472c-2.47-3.61-5.18-6.14-10.69-6.14-3.93,0-12.27,3.7-12.27,17.45,0,3.21.68,12.06,8,15.31C458.48,560.36,463.43,561.8,467.17,560Z" transform="translate(-138.46 -228.39)"/><path class="cls-4" d="M303.83,553.18c2.29,4.1,6.43,7.74,10.42,7.41S321,557.36,321,553c0-8.56-16.62-7-16.48-18.89.1-8.52,7.72-10.86,12.79-10.86a24.6,24.6,0,0,1,7.73,1.35l-.24,7-.07,0c-3.06-4.46-5.06-5.33-8.28-5.33a6,6,0,0,0-5.92,5.89c0,9,16.74,6.53,16.74,20,0,7.43-6.54,11.67-13.69,11.67a24.78,24.78,0,0,1-9-2l-.87-8.73Z" transform="translate(-138.46 -228.39)"/><path class="cls-4" d="M364.76,551.7c0,4.55-2.62,7.87-6.59,9.76-4.13,2-8.81,1.83-13.24,1.83h-9.41v-.18c3-1.12,2.6-5.44,2.6-8.15V532.69c0-2.66.41-7-2.6-8.1v-.17H349c7.81,0,12.65,3.13,12.65,8.39,0,4-2.58,6.45-8.22,8.48C357.42,542,364.76,543.76,364.76,551.7Zm-20.4-23.78V560c5.05,1,13.72.14,13.6-8.4-.07-4.66-3.38-8.15-11.39-8.17l1.14-2.89c2.56-.61,7.34-1.57,7.34-7.33C355.05,528.22,348.51,526.57,344.36,527.92Z" transform="translate(-138.46 -228.39)"/><path class="cls-4" d="M396.57,531.2h-.16c-1.35-1.75-2.89-4.88-14.18-3.41v12.28h11.12V546h-.18c-.94-1.71-3.41-2.65-5.24-2.65h-5.7v16.58c14.25,1.7,16.47-3.87,17.5-5.26h.3l-2.67,8.59H372.92V563c3-1.57,3-4.8,3-7.45V532.13c0-2.7,0-6.38-3-7.5v-.18h23.65Z" transform="translate(-138.46 -228.39)"/><path class="cls-4" d="M441,563.21h-5.32c-2-.1-4.57,0-7.76-4s-10.43-14.54-10.43-14.54L419,542c3.79-1,7.18-3.11,7.18-8.15,0-3.82-3.35-6.12-7.3-6.26a14.94,14.94,0,0,0-3.61.16V555c.12,3-.51,7,2.5,8.07v.17h-11.5V563c3-1.44,2.41-5.22,2.6-8.07V532.48c-.19-2.94.41-6.73-2.6-7.85v-.18h14c8.63,0,12.44,4.13,12.44,9.48,0,5.19-4.05,8-9,9.32,4.51,6.18,12.39,18,17.29,19.87Z" transform="translate(-138.46 -228.39)"/><path class="cls-4" d="M173.47,563v.19h-6.06a8.38,8.38,0,0,1-7.12-3.87l-11.36-16.91,9.6-10.33c2.94-3.16,4.11-6.19,0-7.52v-.17h11.17v.05L155,540.6C159.49,547,168,560.78,173.47,563Z" transform="translate(-138.46 -228.39)"/><path class="cls-4" d="M141.12,532.68c0-2.66.35-7-2.66-8.08v-.17h11.61v.17c-3,1.06-2.66,5.42-2.66,8.08v22.23c0,2.71-.35,7,2.66,8.13v.19H138.46V563c3-1.11,2.66-5.48,2.66-8.13Z" transform="translate(-138.46 -228.39)"/></svg>